<mxfile host="Electron" agent="Mozilla/5.0 (Windows NT 10.0; Win64; x64) AppleWebKit/537.36 (KHTML, like Gecko) draw.io/24.7.17 Chrome/128.0.6613.36 Electron/32.0.1 Safari/537.36" version="24.7.17">
  <diagram id="C5RBs43oDa-KdzZeNtuy" name="Page-1">
    <mxGraphModel dx="1863" dy="614" grid="1" gridSize="10" guides="1" tooltips="1" connect="1" arrows="1" fold="1" page="1" pageScale="1" pageWidth="827" pageHeight="1169" math="0" shadow="0">
      <root>
        <mxCell id="WIyWlLk6GJQsqaUBKTNV-0" />
        <mxCell id="WIyWlLk6GJQsqaUBKTNV-1" parent="WIyWlLk6GJQsqaUBKTNV-0" />
        <mxCell id="dPnQrwwEnH96anZ1LHoW-0" value="&lt;div style=&quot;text-align: center; box-sizing: border-box; width: 100%; background: rgb(228, 228, 228); padding: 2px;&quot;&gt;User (Khách hàng)&lt;/div&gt;&lt;table style=&quot;width:100%;font-size:1em;&quot; cellpadding=&quot;2&quot; cellspacing=&quot;0&quot;&gt;&lt;tbody&gt;&lt;tr&gt;&lt;td&gt;PK&lt;/td&gt;&lt;td&gt;Id_KH&lt;/td&gt;&lt;/tr&gt;&lt;tr&gt;&lt;td&gt;&lt;br&gt;&lt;/td&gt;&lt;td&gt;&lt;br&gt;&lt;/td&gt;&lt;/tr&gt;&lt;tr&gt;&lt;td&gt;&lt;/td&gt;&lt;td&gt;Tên&lt;br&gt;Mail&lt;br&gt;SDT&lt;br&gt;Địa chỉ&lt;/td&gt;&lt;/tr&gt;&lt;/tbody&gt;&lt;/table&gt;" style="verticalAlign=top;align=left;overflow=fill;html=1;whiteSpace=wrap;" parent="WIyWlLk6GJQsqaUBKTNV-1" vertex="1">
          <mxGeometry x="30" y="60" width="180" height="130" as="geometry" />
        </mxCell>
        <mxCell id="dPnQrwwEnH96anZ1LHoW-1" value="&lt;div style=&quot;text-align: center; box-sizing: border-box; width: 100%; background: rgb(228, 228, 228); padding: 2px;&quot;&gt;Admin&lt;br&gt;(Quản lý hệ thống)&lt;/div&gt;&lt;table style=&quot;width:100%;font-size:1em;&quot; cellpadding=&quot;2&quot; cellspacing=&quot;0&quot;&gt;&lt;tbody&gt;&lt;tr&gt;&lt;td&gt;PK&lt;/td&gt;&lt;td&gt;Id_QL&lt;/td&gt;&lt;/tr&gt;&lt;tr&gt;&lt;td&gt;&lt;br&gt;&lt;/td&gt;&lt;td&gt;&lt;br&gt;&lt;/td&gt;&lt;/tr&gt;&lt;tr&gt;&lt;td&gt;&lt;/td&gt;&lt;td&gt;Tên&lt;br&gt;Mail&lt;br&gt;Vai trò&lt;/td&gt;&lt;/tr&gt;&lt;/tbody&gt;&lt;/table&gt;" style="verticalAlign=top;align=left;overflow=fill;html=1;whiteSpace=wrap;" parent="WIyWlLk6GJQsqaUBKTNV-1" vertex="1">
          <mxGeometry x="810" y="415" width="180" height="130" as="geometry" />
        </mxCell>
        <mxCell id="dPnQrwwEnH96anZ1LHoW-2" value="&lt;div style=&quot;text-align: center; box-sizing: border-box; width: 100%; background: rgb(228, 228, 228); padding: 2px;&quot;&gt;Service Provider&lt;br&gt;(Nhà Cung Cấp Dịch Vụ)&lt;br&gt;&lt;/div&gt;&lt;table style=&quot;width:100%;font-size:1em;&quot; cellpadding=&quot;2&quot; cellspacing=&quot;0&quot;&gt;&lt;tbody&gt;&lt;tr&gt;&lt;td&gt;PK&lt;/td&gt;&lt;td&gt;Id_NCC&lt;/td&gt;&lt;/tr&gt;&lt;tr&gt;&lt;td&gt;&lt;br&gt;&lt;/td&gt;&lt;td&gt;&lt;br&gt;&lt;/td&gt;&lt;/tr&gt;&lt;tr&gt;&lt;td&gt;&lt;/td&gt;&lt;td&gt;Tên&lt;br&gt;Kiểu Dịch vụ&lt;br&gt;Thông tin liên hệ&lt;/td&gt;&lt;/tr&gt;&lt;/tbody&gt;&lt;/table&gt;" style="verticalAlign=top;align=left;overflow=fill;html=1;whiteSpace=wrap;" parent="WIyWlLk6GJQsqaUBKTNV-1" vertex="1">
          <mxGeometry x="433.32" y="70" width="180" height="130" as="geometry" />
        </mxCell>
        <mxCell id="dPnQrwwEnH96anZ1LHoW-3" value="&lt;div style=&quot;text-align: center; box-sizing: border-box; width: 100%; background: rgb(228, 228, 228); padding: 2px;&quot;&gt;Service&amp;nbsp;&lt;br&gt;(Dịch Vụ)&lt;br&gt;&lt;/div&gt;&lt;table style=&quot;width:100%;font-size:1em;&quot; cellpadding=&quot;2&quot; cellspacing=&quot;0&quot;&gt;&lt;tbody&gt;&lt;tr&gt;&lt;td&gt;PK&lt;/td&gt;&lt;td&gt;Id_DV&lt;/td&gt;&lt;/tr&gt;&lt;tr&gt;&lt;td&gt;FK1&lt;/td&gt;&lt;td&gt;Id_NCC&lt;/td&gt;&lt;/tr&gt;&lt;tr&gt;&lt;td&gt;&lt;/td&gt;&lt;td&gt;Tên DV&lt;br&gt;Giá&lt;br&gt;Thời gian&lt;br&gt;Vị trí&lt;/td&gt;&lt;/tr&gt;&lt;/tbody&gt;&lt;/table&gt;" style="verticalAlign=top;align=left;overflow=fill;html=1;whiteSpace=wrap;" parent="WIyWlLk6GJQsqaUBKTNV-1" vertex="1">
          <mxGeometry x="433.33" y="310" width="180" height="130" as="geometry" />
        </mxCell>
        <mxCell id="dPnQrwwEnH96anZ1LHoW-4" value="&lt;div style=&quot;text-align: center; box-sizing: border-box; width: 100%; background: rgb(228, 228, 228); padding: 2px;&quot;&gt;Booking&lt;br&gt;(Đặt chỗ)&lt;br&gt;&lt;/div&gt;&lt;table style=&quot;width:100%;font-size:1em;&quot; cellpadding=&quot;2&quot; cellspacing=&quot;0&quot;&gt;&lt;tbody&gt;&lt;tr&gt;&lt;td&gt;PK&lt;/td&gt;&lt;td&gt;Id_D&lt;/td&gt;&lt;/tr&gt;&lt;tr&gt;&lt;td style=&quot;text-align: justify;&quot;&gt;&lt;span style=&quot;font-size: 1em; background-color: initial;&quot;&gt;FK1&lt;/span&gt;&lt;br&gt;&lt;/td&gt;&lt;td style=&quot;text-align: justify;&quot;&gt;&lt;span style=&quot;font-size: 1em; background-color: initial;&quot;&gt;Id_KH&lt;/span&gt;&lt;br&gt;&lt;/td&gt;&lt;/tr&gt;&lt;tr&gt;&lt;td style=&quot;text-align: justify;&quot;&gt;&lt;span style=&quot;font-size: 1em; background-color: initial;&quot;&gt;FK2&lt;/span&gt;&lt;br&gt;&lt;/td&gt;&lt;td&gt;&lt;div style=&quot;text-align: justify;&quot;&gt;Trạng thái&lt;br&gt;&lt;span style=&quot;background-color: initial; font-size: 1em;&quot;&gt;Id_DV&lt;/span&gt;&lt;/div&gt;&lt;div style=&quot;text-align: justify;&quot;&gt;Thời gian đặt chỗ&lt;/div&gt;&lt;/td&gt;&lt;/tr&gt;&lt;/tbody&gt;&lt;/table&gt;" style="verticalAlign=top;align=left;overflow=fill;html=1;whiteSpace=wrap;" parent="WIyWlLk6GJQsqaUBKTNV-1" vertex="1">
          <mxGeometry x="433.33" y="480" width="180" height="120" as="geometry" />
        </mxCell>
        <mxCell id="dPnQrwwEnH96anZ1LHoW-5" value="&lt;div style=&quot;text-align: center; box-sizing: border-box; width: 100%; background: rgb(228, 228, 228); padding: 2px;&quot;&gt;Thanh toán&lt;/div&gt;&lt;table style=&quot;width:100%;font-size:1em;&quot; cellpadding=&quot;2&quot; cellspacing=&quot;0&quot;&gt;&lt;tbody&gt;&lt;tr&gt;&lt;td&gt;PK&lt;/td&gt;&lt;td&gt;Id_TT&lt;/td&gt;&lt;/tr&gt;&lt;tr&gt;&lt;td&gt;FK1&lt;/td&gt;&lt;td&gt;Id_D&lt;/td&gt;&lt;/tr&gt;&lt;tr&gt;&lt;td&gt;&lt;/td&gt;&lt;td&gt;Số lượng&lt;br&gt;Giá&lt;br&gt;Phương thức TT&lt;br&gt;Trạng thái&lt;/td&gt;&lt;/tr&gt;&lt;/tbody&gt;&lt;/table&gt;" style="verticalAlign=top;align=left;overflow=fill;html=1;whiteSpace=wrap;" parent="WIyWlLk6GJQsqaUBKTNV-1" vertex="1">
          <mxGeometry x="60" y="470" width="180" height="130" as="geometry" />
        </mxCell>
        <mxCell id="dPnQrwwEnH96anZ1LHoW-6" value="&lt;div style=&quot;text-align: center; box-sizing: border-box; width: 100%; background: rgb(228, 228, 228); padding: 2px;&quot;&gt;Khiếu nại&lt;/div&gt;&lt;table style=&quot;width:100%;font-size:1em;&quot; cellpadding=&quot;2&quot; cellspacing=&quot;0&quot;&gt;&lt;tbody&gt;&lt;tr&gt;&lt;td&gt;PK&lt;/td&gt;&lt;td&gt;Id_KN&lt;/td&gt;&lt;/tr&gt;&lt;tr&gt;&lt;td style=&quot;text-align: justify;&quot;&gt;&lt;span style=&quot;font-size: 1em; background-color: initial;&quot;&gt;FK1&lt;/span&gt;&lt;br&gt;&lt;/td&gt;&lt;td style=&quot;text-align: justify;&quot;&gt;&lt;span style=&quot;font-size: 1em; background-color: initial;&quot;&gt;Id_KH&lt;/span&gt;&lt;br&gt;&lt;/td&gt;&lt;/tr&gt;&lt;tr&gt;&lt;td style=&quot;text-align: justify;&quot;&gt;&lt;span style=&quot;font-size: 1em; background-color: initial;&quot;&gt;FK2&lt;/span&gt;&lt;br&gt;&lt;/td&gt;&lt;td&gt;&lt;div style=&quot;text-align: justify;&quot;&gt;Trạng thái&lt;br&gt;&lt;span style=&quot;background-color: initial; font-size: 1em;&quot;&gt;Id_DV&lt;/span&gt;&lt;/div&gt;&lt;div style=&quot;text-align: justify;&quot;&gt;Thời gian khiếu nại&lt;/div&gt;&lt;/td&gt;&lt;/tr&gt;&lt;/tbody&gt;&lt;/table&gt;" style="verticalAlign=top;align=left;overflow=fill;html=1;whiteSpace=wrap;" parent="WIyWlLk6GJQsqaUBKTNV-1" vertex="1">
          <mxGeometry x="810" y="70" width="180" height="110" as="geometry" />
        </mxCell>
        <mxCell id="dPnQrwwEnH96anZ1LHoW-7" value="" style="endArrow=ERone;startArrow=ERone;endFill=0;startFill=0;html=1;rounded=0;exitX=0.5;exitY=1;exitDx=0;exitDy=0;edgeStyle=orthogonalEdgeStyle;" parent="WIyWlLk6GJQsqaUBKTNV-1" source="dPnQrwwEnH96anZ1LHoW-0" target="dPnQrwwEnH96anZ1LHoW-4" edge="1">
          <mxGeometry width="160" relative="1" as="geometry">
            <mxPoint x="330" y="340" as="sourcePoint" />
            <mxPoint x="490" y="340" as="targetPoint" />
            <Array as="points">
              <mxPoint x="120" y="210" />
              <mxPoint x="290" y="210" />
              <mxPoint x="290" y="545" />
            </Array>
          </mxGeometry>
        </mxCell>
        <mxCell id="dPnQrwwEnH96anZ1LHoW-8" value="" style="endArrow=ERone;startArrow=ERone;endFill=0;startFill=0;html=1;rounded=0;exitX=0.5;exitY=0;exitDx=0;exitDy=0;entryX=0.5;entryY=1;entryDx=0;entryDy=0;edgeStyle=orthogonalEdgeStyle;" parent="WIyWlLk6GJQsqaUBKTNV-1" source="dPnQrwwEnH96anZ1LHoW-4" target="dPnQrwwEnH96anZ1LHoW-3" edge="1">
          <mxGeometry width="160" relative="1" as="geometry">
            <mxPoint x="230.19" y="210" as="sourcePoint" />
            <mxPoint x="300" y="460" as="targetPoint" />
          </mxGeometry>
        </mxCell>
        <mxCell id="dPnQrwwEnH96anZ1LHoW-9" value="" style="endArrow=ERone;startArrow=ERone;endFill=0;startFill=0;html=1;rounded=0;exitX=0.5;exitY=1;exitDx=0;exitDy=0;entryX=0.5;entryY=1;entryDx=0;entryDy=0;edgeStyle=orthogonalEdgeStyle;" parent="WIyWlLk6GJQsqaUBKTNV-1" source="dPnQrwwEnH96anZ1LHoW-4" target="dPnQrwwEnH96anZ1LHoW-5" edge="1">
          <mxGeometry width="160" relative="1" as="geometry">
            <mxPoint x="250" y="550.21" as="sourcePoint" />
            <mxPoint x="360" y="542.21" as="targetPoint" />
            <Array as="points">
              <mxPoint x="523" y="630" />
              <mxPoint x="150" y="630" />
            </Array>
          </mxGeometry>
        </mxCell>
        <mxCell id="dPnQrwwEnH96anZ1LHoW-12" value="" style="endArrow=ERmany;startArrow=none;endFill=0;startFill=0;html=1;rounded=0;entryX=1;entryY=1;entryDx=0;entryDy=0;exitX=0.007;exitY=0.512;exitDx=0;exitDy=0;exitPerimeter=0;edgeStyle=orthogonalEdgeStyle;" parent="WIyWlLk6GJQsqaUBKTNV-1" source="dPnQrwwEnH96anZ1LHoW-17" target="dPnQrwwEnH96anZ1LHoW-3" edge="1">
          <mxGeometry width="160" relative="1" as="geometry">
            <mxPoint x="590" y="140" as="sourcePoint" />
            <mxPoint x="560" y="260" as="targetPoint" />
            <Array as="points">
              <mxPoint x="630" y="481" />
              <mxPoint x="630" y="440" />
            </Array>
          </mxGeometry>
        </mxCell>
        <mxCell id="dPnQrwwEnH96anZ1LHoW-14" value="" style="endArrow=ERone;startArrow=ERone;endFill=0;startFill=0;html=1;rounded=0;exitX=0.5;exitY=0;exitDx=0;exitDy=0;entryX=0.5;entryY=0;entryDx=0;entryDy=0;edgeStyle=orthogonalEdgeStyle;" parent="WIyWlLk6GJQsqaUBKTNV-1" source="dPnQrwwEnH96anZ1LHoW-0" target="dPnQrwwEnH96anZ1LHoW-6" edge="1">
          <mxGeometry width="160" relative="1" as="geometry">
            <mxPoint x="460" y="20" as="sourcePoint" />
            <mxPoint x="870" y="15" as="targetPoint" />
          </mxGeometry>
        </mxCell>
        <mxCell id="dPnQrwwEnH96anZ1LHoW-15" value="" style="endArrow=ERone;startArrow=ERoneToMany;endFill=0;startFill=0;html=1;rounded=0;edgeStyle=orthogonalEdgeStyle;" parent="WIyWlLk6GJQsqaUBKTNV-1" source="dPnQrwwEnH96anZ1LHoW-3" target="dPnQrwwEnH96anZ1LHoW-6" edge="1">
          <mxGeometry width="160" relative="1" as="geometry">
            <mxPoint x="860" y="340" as="sourcePoint" />
            <mxPoint x="1270" y="335" as="targetPoint" />
            <Array as="points">
              <mxPoint x="850" y="395" />
            </Array>
          </mxGeometry>
        </mxCell>
        <mxCell id="dPnQrwwEnH96anZ1LHoW-17" value="&lt;span style=&quot;font-size: 11px; text-wrap: nowrap; background-color: rgb(255, 255, 255);&quot;&gt;Quản Lý&lt;/span&gt;" style="html=1;whiteSpace=wrap;aspect=fixed;shape=isoRectangle;" parent="WIyWlLk6GJQsqaUBKTNV-1" vertex="1">
          <mxGeometry x="670" y="455" width="83.33" height="50" as="geometry" />
        </mxCell>
        <mxCell id="dPnQrwwEnH96anZ1LHoW-18" value="" style="endArrow=none;startArrow=ERone;endFill=0;startFill=0;html=1;rounded=0;exitX=0;exitY=0.5;exitDx=0;exitDy=0;edgeStyle=orthogonalEdgeStyle;" parent="WIyWlLk6GJQsqaUBKTNV-1" source="dPnQrwwEnH96anZ1LHoW-1" target="dPnQrwwEnH96anZ1LHoW-17" edge="1">
          <mxGeometry width="160" relative="1" as="geometry">
            <mxPoint x="680" y="239.55" as="sourcePoint" />
            <mxPoint x="750" y="266.55" as="targetPoint" />
          </mxGeometry>
        </mxCell>
        <mxCell id="dPnQrwwEnH96anZ1LHoW-19" value="" style="endArrow=ERoneToMany;startArrow=none;endFill=0;startFill=0;html=1;rounded=0;edgeStyle=orthogonalEdgeStyle;" parent="WIyWlLk6GJQsqaUBKTNV-1" source="dPnQrwwEnH96anZ1LHoW-20" target="dPnQrwwEnH96anZ1LHoW-6" edge="1">
          <mxGeometry width="160" relative="1" as="geometry">
            <mxPoint x="767" y="136" as="sourcePoint" />
            <mxPoint x="710" y="330" as="targetPoint" />
          </mxGeometry>
        </mxCell>
        <mxCell id="dPnQrwwEnH96anZ1LHoW-20" value="&lt;span style=&quot;font-size: 11px; text-wrap: nowrap; background-color: rgb(255, 255, 255);&quot;&gt;Xử Lý&lt;/span&gt;" style="html=1;whiteSpace=wrap;aspect=fixed;shape=isoRectangle;" parent="WIyWlLk6GJQsqaUBKTNV-1" vertex="1">
          <mxGeometry x="866.67" y="250" width="66.66" height="40" as="geometry" />
        </mxCell>
        <mxCell id="dPnQrwwEnH96anZ1LHoW-21" value="" style="endArrow=none;startArrow=ERone;endFill=0;startFill=0;html=1;rounded=0;edgeStyle=orthogonalEdgeStyle;" parent="WIyWlLk6GJQsqaUBKTNV-1" source="dPnQrwwEnH96anZ1LHoW-1" target="dPnQrwwEnH96anZ1LHoW-20" edge="1">
          <mxGeometry width="160" relative="1" as="geometry">
            <mxPoint x="570" y="200" as="sourcePoint" />
            <mxPoint x="760" y="276.55" as="targetPoint" />
          </mxGeometry>
        </mxCell>
        <mxCell id="dPnQrwwEnH96anZ1LHoW-24" value="" style="endArrow=ERoneToMany;startArrow=none;endFill=0;startFill=0;html=1;rounded=0;entryX=0;entryY=0.5;entryDx=0;entryDy=0;exitX=0.497;exitY=1.004;exitDx=0;exitDy=0;exitPerimeter=0;edgeStyle=orthogonalEdgeStyle;" parent="WIyWlLk6GJQsqaUBKTNV-1" source="dPnQrwwEnH96anZ1LHoW-25" target="dPnQrwwEnH96anZ1LHoW-5" edge="1">
          <mxGeometry width="160" relative="1" as="geometry">
            <mxPoint x="67" y="320" as="sourcePoint" />
            <mxPoint x="269.64" y="270" as="targetPoint" />
          </mxGeometry>
        </mxCell>
        <mxCell id="dPnQrwwEnH96anZ1LHoW-25" value="&lt;span style=&quot;font-size: 11px; text-wrap: nowrap; background-color: rgb(255, 255, 255);&quot;&gt;Thực hiện&lt;/span&gt;" style="html=1;whiteSpace=wrap;aspect=fixed;shape=isoRectangle;" parent="WIyWlLk6GJQsqaUBKTNV-1" vertex="1">
          <mxGeometry x="-30" y="300" width="83.32" height="50" as="geometry" />
        </mxCell>
        <mxCell id="dPnQrwwEnH96anZ1LHoW-26" value="" style="endArrow=none;startArrow=ERone;endFill=0;startFill=0;html=1;rounded=0;exitX=0;exitY=0.5;exitDx=0;exitDy=0;edgeStyle=orthogonalEdgeStyle;" parent="WIyWlLk6GJQsqaUBKTNV-1" source="dPnQrwwEnH96anZ1LHoW-0" target="dPnQrwwEnH96anZ1LHoW-25" edge="1">
          <mxGeometry width="160" relative="1" as="geometry">
            <mxPoint x="109.63999999999999" y="270" as="sourcePoint" />
            <mxPoint x="219.64" y="411.55" as="targetPoint" />
          </mxGeometry>
        </mxCell>
        <mxCell id="dPnQrwwEnH96anZ1LHoW-27" value="" style="endArrow=ERmany;startArrow=none;endFill=0;startFill=0;html=1;rounded=0;edgeStyle=orthogonalEdgeStyle;" parent="WIyWlLk6GJQsqaUBKTNV-1" source="dPnQrwwEnH96anZ1LHoW-28" target="dPnQrwwEnH96anZ1LHoW-3" edge="1">
          <mxGeometry width="160" relative="1" as="geometry">
            <mxPoint x="394.65999999999997" y="150" as="sourcePoint" />
            <mxPoint x="504.65999999999997" y="330" as="targetPoint" />
          </mxGeometry>
        </mxCell>
        <mxCell id="dPnQrwwEnH96anZ1LHoW-28" value="&lt;span style=&quot;font-size: 11px; text-wrap: nowrap; background-color: rgb(255, 255, 255);&quot;&gt;Cung cấp&lt;/span&gt;" style="html=1;whiteSpace=wrap;aspect=fixed;shape=isoRectangle;" parent="WIyWlLk6GJQsqaUBKTNV-1" vertex="1">
          <mxGeometry x="481.66" y="230" width="83.33" height="50" as="geometry" />
        </mxCell>
        <mxCell id="dPnQrwwEnH96anZ1LHoW-29" value="" style="endArrow=none;startArrow=ERone;endFill=0;startFill=0;html=1;rounded=0;edgeStyle=orthogonalEdgeStyle;" parent="WIyWlLk6GJQsqaUBKTNV-1" source="dPnQrwwEnH96anZ1LHoW-2" target="dPnQrwwEnH96anZ1LHoW-28" edge="1">
          <mxGeometry width="160" relative="1" as="geometry">
            <mxPoint x="364.65999999999997" y="200" as="sourcePoint" />
            <mxPoint x="554.66" y="276.55" as="targetPoint" />
          </mxGeometry>
        </mxCell>
        <mxCell id="dPnQrwwEnH96anZ1LHoW-30" value="" style="endArrow=ERmany;startArrow=none;endFill=0;startFill=0;html=1;rounded=0;" parent="WIyWlLk6GJQsqaUBKTNV-1" source="dPnQrwwEnH96anZ1LHoW-31" edge="1">
          <mxGeometry width="160" relative="1" as="geometry">
            <mxPoint x="390" y="115" as="sourcePoint" />
            <mxPoint x="210" y="117" as="targetPoint" />
          </mxGeometry>
        </mxCell>
        <mxCell id="dPnQrwwEnH96anZ1LHoW-31" value="&lt;span style=&quot;font-size: 11px; text-wrap: nowrap; background-color: rgb(255, 255, 255);&quot;&gt;Đặt&lt;/span&gt;" style="html=1;whiteSpace=wrap;aspect=fixed;shape=isoRectangle;" parent="WIyWlLk6GJQsqaUBKTNV-1" vertex="1">
          <mxGeometry x="250" y="90" width="83.33" height="50" as="geometry" />
        </mxCell>
        <mxCell id="dPnQrwwEnH96anZ1LHoW-32" value="" style="endArrow=none;startArrow=ERone;endFill=0;startFill=0;html=1;rounded=0;edgeStyle=orthogonalEdgeStyle;entryX=1.006;entryY=0.516;entryDx=0;entryDy=0;entryPerimeter=0;exitX=0;exitY=0.5;exitDx=0;exitDy=0;" parent="WIyWlLk6GJQsqaUBKTNV-1" source="dPnQrwwEnH96anZ1LHoW-3" target="dPnQrwwEnH96anZ1LHoW-31" edge="1">
          <mxGeometry width="160" relative="1" as="geometry">
            <mxPoint x="433" y="408" as="sourcePoint" />
            <mxPoint x="429" y="116" as="targetPoint" />
          </mxGeometry>
        </mxCell>
        <mxCell id="dPnQrwwEnH96anZ1LHoW-37" value="" style="endArrow=ERmany;startArrow=none;endFill=0;startFill=0;html=1;rounded=0;entryX=0.985;entryY=0.558;entryDx=0;entryDy=0;exitX=0.497;exitY=0.976;exitDx=0;exitDy=0;exitPerimeter=0;entryPerimeter=0;edgeStyle=orthogonalEdgeStyle;" parent="WIyWlLk6GJQsqaUBKTNV-1" source="dPnQrwwEnH96anZ1LHoW-17" target="dPnQrwwEnH96anZ1LHoW-4" edge="1">
          <mxGeometry width="160" relative="1" as="geometry">
            <mxPoint x="681" y="491" as="sourcePoint" />
            <mxPoint x="623" y="450" as="targetPoint" />
            <Array as="points">
              <mxPoint x="711" y="547" />
            </Array>
          </mxGeometry>
        </mxCell>
      </root>
    </mxGraphModel>
  </diagram>
</mxfile>
